<svg height="496pt" viewBox="0 0 496.04221 496" width="496pt" xmlns="http://www.w3.org/2000/svg"><path d="m268.554688 49.570312 57.808593-16.515624-57.808593-16.515626" fill="#e3e7f2"/><path d="m239.652344 68.316406v-43.519531c.027344-9.113281 7.40625-16.488281 16.515625-16.515625 4.382812-.023438 8.585937 1.734375 11.644531 4.871094 3.136719 3.058594 4.894531 7.261718 4.871094 11.644531v51.035156zm0 0" fill="#e3e7f2"/><path d="m272.683594 284.675781v91.085938h-33.03125v-93.585938" fill="#e3e7f2"/><path d="m99.265625 229.621094v75.261718h-33.03125v-77.765624" fill="#e3e7f2"/><path d="m429.585938 330.128906v-64.132812l-33.03125 5.914062v66.691406zm0 0" fill="#e3e7f2"/><path d="m487.558594 330.34375c-.082032-1.816406-.164063-5.863281-.164063-10.15625-.023437-2.457031-1.132812-4.773438-3.03125-6.335938-1.894531-1.5625-4.382812-2.203124-6.796875-1.757812l-16.183594 3.136719h-.25v.082031c-28.820312 5.371094-57.640624 10.984375-86.460937 16.351562-10.304687 3.21875-19.457031 9.359376-26.34375 17.671876-9.269531 9-21.679687 14.035156-34.601563 14.039062h-124.863281c-23.152343.015625-42.921875-16.714844-46.738281-39.554688-1.488281-8.589843-1.652344-18.828124-8.917969-23.699218-4.382812-2.335938-9.347656-3.339844-14.289062-2.890625h-24.609375c-21.632813.054687-43.214844.082031-64.742188.082031-5.488281-.601562-11.011718.742188-15.605468 3.796875-4.367188 5.113281-6.378907 11.828125-5.535157 18.5 0 14.863281-.082031 29.644531-.164062 44.511719-1.148438 7.613281 1.363281 15.328125 6.769531 20.808594 4.359375 2.285156 9.136719 3.660156 14.039062 4.046874 7.371094 1.5625 12.578126 8.160157 12.386719 15.691407 12.390625 29.066406 47.652344 49.628906 81.179688 49.628906h205.046875c30.882812 0 69.285156-17.507813 83.160156-45.089844l1.238281-2.476562c-.289062-3.691407.042969-7.402344.988281-10.984375.492188-.375 1.019532-.707032 1.570313-.988282 11.148437-7.351562 22.269531-14.671874 33.363281-21.96875 6.851563-4.539062 13.707032-9 20.5625-13.542968 2.640625-1.734375 5.367188-3.46875 8.007813-5.203125 3.636719-2.476563 8.261719-4.210938 10.078125-8.585938 1.046875-4.964843 1.351562-10.058593.90625-15.113281zm0 0" fill="#e3e7f2"/><path d="m486.652344 345.457031c-1.816406 4.375-6.441406 6.109375-10.078125 8.585938-2.640625 1.734375-5.367188 3.46875-8.007813 5.203125-6.855468 4.542968-13.710937 9.003906-20.5625 13.542968-11.066406 7.269532-22.1875 14.589844-33.363281 21.96875-.550781.28125-1.078125.613282-1.570313.988282-.945312 3.582031-1.277343 7.292968-.988281 10.984375l-1.238281 2.476562c-13.875 27.582031-52.277344 45.089844-83.160156 45.089844h-24.609375c30.886719 0 69.285156-17.507813 83.160156-45.089844l1.238281-2.476562c-.289062-3.691407.042969-7.402344.988282-10.984375.492187-.375 1.019531-.707032 1.570312-.988282 11.148438-7.351562 22.269531-14.671874 33.363281-21.96875 6.855469-4.539062 13.707031-9 20.5625-13.542968 2.640625-1.734375 5.367188-3.46875 8.011719-5.203125 3.632812-2.476563 8.257812-4.210938 10.074219-8.585938 1.046875-4.964843 1.351562-10.058593.90625-15.113281-.082031-1.816406-.164063-5.863281-.164063-10.15625.023438-1.765625-.558594-3.484375-1.652344-4.875v-.082031h.25l16.183594-3.136719c2.414063-.445312 4.902344.195312 6.796875 1.757812 1.898438 1.5625 3.007813 3.878907 3.03125 6.335938 0 4.292969.082031 8.339844.164063 10.15625.445312 5.054688.140625 10.148438-.90625 15.113281zm0 0" fill="#a4c2f7"/><path d="m412.082031 406.730469c0 1.488281 0 2.726562-.085937 3.304687-.746094 4.664063-1.824219 9.273438-3.21875 13.789063-1.480469 4.523437-3.332032 8.914062-5.53125 13.132812l-2.5625 5.199219c-13.867188 27.609375-42.105469 45.054688-73 45.089844h-205.046875c-31.988281-.089844-60.960938-18.890625-74.074219-48.0625-4.691406-10.40625-7.113281-21.695313-7.105469-33.113282v-1.402343c12.390625 29.066406 47.652344 49.628906 81.179688 49.628906h205.046875c17.394531-.3125 34.457031-4.847656 49.714844-13.210937 14.136718-6.964844 25.808593-18.089844 33.445312-31.878907zm0 0" fill="#7fabfa"/><path d="m377.398438 441.085938-.496094 1.070312c-13.867188 27.609375-42.105469 45.054688-73.003906 45.089844h-181.261719c-31.988281-.089844-60.960938-18.890625-74.074219-48.0625 15.011719 9.660156 32.441406 14.894531 50.289062 15.113281h228.832032c17.394531-.3125 34.457031-4.847656 49.714844-13.210937zm0 0" fill="#a4c2f7"/><path d="m341.226562 293.183594c-1.492187 2.613281-4.34375 4.152344-7.351562 3.964844l-20.890625-.664063-144.847656-4.621094c-2.53125-.066406-4.894531-1.289062-6.40625-3.320312-1.515625-2.027344-2.015625-4.640625-1.355469-7.085938 17.878906-74.695312 17.933594-152.542969.164062-227.261719-.539062-2.175781-.152343-4.480468 1.074219-6.359374 1.871094-2.921876 5.378907-4.34375 8.753907-3.550782l163.261718 37.160156c3.113282.703126 5.53125 3.152344 6.195313 6.277344 5.695312 27.085938 29.976562 153.765625 1.402343 205.460938zm0 0" fill="#7fabfa"/><path d="m316.863281 293.183594c-.828125 1.550781-2.214843 2.730468-3.878906 3.300781l-144.847656-4.621094c-2.53125-.066406-4.894531-1.289062-6.40625-3.320312-1.515625-2.027344-2.015625-4.640625-1.355469-7.085938 17.878906-74.695312 17.933594-152.542969.164062-227.261719-.539062-2.175781-.152343-4.480468 1.074219-6.359374l147.570313 33.609374c3.136718.695313 5.582031 3.144532 6.277344 6.277344 5.617187 27.085938 29.976562 153.765625 1.402343 205.460938zm0 0" fill="#a4c2f7"/><path d="m37.550781 85.367188 87.539063 19.21875c3.164062.683593 5.621094 3.175781 6.257812 6.347656 4.078125 20.390625 17.464844 95.125 1.777344 128.429687-1.414062 3.089844-4.570312 5-7.960938 4.816407l-89.949218-4.957032c-2.433594-.117187-4.6875-1.320312-6.136719-3.28125-1.453125-1.960937-1.945313-4.46875-1.34375-6.832031 10.117187-44.132813 10.136719-89.980469.066406-134.121094-.5625-2.710937.289063-5.519531 2.257813-7.460937 1.972656-1.945313 4.792968-2.757813 7.492187-2.160156zm0 0" fill="#a4c2f7"/><path d="m458.820312 271.132812c-22.046874 1.238282-51.53125 5.453126-67.46875 7.847657-2.554687.359375-5.125-.515625-6.933593-2.355469-1.808594-1.839844-2.636719-4.429688-2.230469-6.976562 2.945312-32.464844 3.085938-65.125.410156-97.613282-.246094-3.136718-.492187-6.027344-.660156-8.75-.226562-3.449218 1.738281-6.664062 4.90625-8.035156 3.171875-1.375 6.859375-.601562 9.214844 1.921875 28.496094 30.269531 52.019531 64.859375 69.699218 102.484375 1.097657 2.441406.925782 5.265625-.457031 7.558594-1.386719 2.289062-3.808593 3.753906-6.480469 3.917968zm0 0" fill="#7fabfa"/><path d="m432.230469 271.132812c-14.78125.828126-33.03125 2.972657-48.226563 5.039063-1.554687-1.792969-2.21875-4.1875-1.816406-6.523437 2.945312-32.464844 3.085938-65.125.410156-97.613282 22.773438 26.46875 41.777344 55.953125 56.488282 87.621094 1.132812 2.425781.988281 5.253906-.386719 7.554688-1.371094 2.300781-3.796875 3.769531-6.46875 3.921874zm0 0" fill="#a4c2f7"/><path d="m59.710938 457.1875-8.09375 24.445312c-1.167969 3.339844-4.308594 5.589844-7.847657 5.613282h-18.828125c-4.558594 0-8.257812-3.695313-8.257812-8.257813v-33.03125c0-4.5625 3.699218-8.257812 8.257812-8.257812h22.875" fill="#a4c2f7"/><path d="m247.910156 205.316406v17.671875c-.011718.71875-.066406 1.4375-.164062 2.148438-1.042969 7.71875-7.335938 13.664062-15.101563 14.261719-7.769531.597656-14.898437-4.3125-17.105469-11.785157-.433593-1.503906-.65625-3.058593-.660156-4.625v-38.480469" fill="#d4e1f4"/><path d="m247.910156 204.574219v18.414062c.011719.800781.066406 1.601563.164063 2.394531 1.027343 6.851563 6.195312 12.34375 12.964843 13.792969h.085938c2.179688.441407 4.425781.441407 6.605469 0h.082031c7.65625-1.605469 13.140625-8.363281 13.128906-16.1875v-17.671875" fill="#d4e1f4"/><path d="m313.976562 184.507812v38.480469c0 9.121094-7.394531 16.515625-16.519531 16.515625-9.121093 0-16.515625-7.394531-16.515625-16.515625v-18.414062" fill="#d4e1f4"/><path d="m322.234375 161.054688c0 5.492187-1.25 10.917968-3.660156 15.855468-3.515625 7.253906-8.902344 13.4375-15.605469 17.917969-7.679688 5.367187-16.457031 8.949219-25.691406 10.488281-.828125.164063-1.652344.332032-2.480469.414063-3.433594.5-6.898437.75-10.371094.742187-4.308593 0-8.609375-.386718-12.847656-1.15625-9.238281-1.539062-18.015625-5.121094-25.691406-10.488281-6.703125-4.480469-12.089844-10.664063-15.609375-17.917969-2.410156-4.9375-3.660156-10.363281-3.65625-15.855468 0-25.105469 25.878906-45.421876 57.804687-45.421876s57.808594 20.316407 57.808594 45.421876zm0 0" fill="#d4e1f4"/><path d="m48.066406 438.046875-.25-.347656h-22.875c-4.558594 0-8.257812 3.695312-8.257812 8.257812v33.03125c0 4.5625 3.699218 8.257813 8.257812 8.257813h18.828125c1.015625-.015625 2.015625-.222656 2.949219-.609375-3.15625-1.230469-5.242188-4.261719-5.261719-7.648438v-33.03125c.046875-3.871093 2.808594-7.175781 6.609375-7.910156zm0 0" fill="#fff"/><path d="m377.273438 450.910156.5625-.15625zm0 0" fill="#fff"/><path d="m364.65625 453.4375c.15625 0 .304688-.046875.460938-.074219-.15625.027344-.304688.027344-.460938.074219zm0 0" fill="#fff"/><path d="m125.171875 244.179688c1.585937.082031 3.160156-.304688 4.53125-1.105469l-5.664063-.316407v1.363282zm0 0" fill="#fff"/><path d="m29.070312 388.976562c7.371094 1.5625 12.578126 8.160157 12.386719 15.691407v1.402343c-.003906 10.992188 2.246094 21.871094 6.609375 31.957032.535156-.167969 1.089844-.28125 1.648438-.328125h22.875l.457031.742187c-4.492187-10.199218-6.8125-21.222656-6.8125-32.371094v-1.402343c.191406-7.53125-5.019531-14.128907-12.386719-15.691407-4.90625-.386718-9.683594-1.761718-14.039062-4.046874-5.410156-5.480469-7.921875-13.195313-6.773438-20.808594.082032-14.867188.164063-29.648438.164063-44.511719-.84375-6.671875 1.167969-13.386719 5.535156-18.5 4.597656-3.054687 10.121094-4.398437 15.605469-3.796875 12.207031 0 24.429687-.015625 36.667968-.050781v-56.320313l-31.011718-1.699218c-2.433594-.121094-4.6875-1.324219-6.136719-3.285157-1.449219-1.960937-1.941406-4.46875-1.34375-6.832031 10.117187-44.136719 10.136719-89.988281.058594-134.136719-.445313-2.085937-.035157-4.261719 1.140625-6.042969l-16.164063-3.550781c-2.695312-.597656-5.511719.214844-7.476562 2.148438-1.96875 1.9375-2.824219 4.738281-2.273438 7.445312 10.082031 44.15625 10.0625 90.015625-.058593 134.160157-.601563 2.363281-.105469 4.871093 1.34375 6.832031 1.449218 1.960937 3.703124 3.167969 6.136718 3.285156l31.011719 1.675781v56.320313c-12.222656.035156-24.445313.050781-36.667969.050781-5.488281-.601562-11.011718.742188-15.605468 3.796875-4.367188 5.113281-6.378907 11.828125-5.535157 18.5 0 14.863281-.082031 29.644531-.164062 44.511719-1.148438 7.613281 1.363281 15.328125 6.769531 20.808594 4.359375 2.285156 9.136719 3.660156 14.039062 4.046874zm0 0" fill="#fff"/><path d="m327.683594 495.503906h-205.046875c-49.371094-.054687-89.382813-40.0625-89.4375-89.433594v-1.402343c.199219-3.652344-2.308594-6.898438-5.894531-7.625-1.15625-.253907-2.289063-.445313-3.425782-.632813-4.890625-.476562-9.59375-2.128906-13.710937-4.808594-10.16406275-7.175781-10.16406275-20.890624-10.16406275-27.480468.08203125-15.054688.16406275-29.730469.16406275-44.511719-.945313-9.09375 2.132812-18.148437 8.433593-24.773437 6.042969-4.429688 13.503907-6.488282 20.964844-5.78125 29.804688 0 59.523438 0 89.328125-.082032 6.574219-.523437 13.148438.960938 18.863281 4.25 7.460938 6.1875 11.808594 15.355469 11.882813 25.046875.195313 1.40625.394531 2.785157.632813 4.128907 3.082031 18.90625 19.4375 32.773437 38.589843 32.71875h124.863281c10.765626-.03125 21.101563-4.222657 28.847657-11.699219l1.046875-1.027344c7.730468-9.109375 18.035156-15.667969 29.5625-18.808594 20.585937-3.855469 41.167968-7.765625 61.746094-11.726562l41.109374-7.839844c4.816407-.917969 9.789063.347656 13.578126 3.460937 3.789062 3.109376 6 7.742188 6.035156 12.644532 0 4.195312.066406 8.074218.15625 9.816406v1.339844c.589844 5.828125.058594 11.714844-1.558594 17.339844-2.25 4.722656-6.035156 8.542968-10.738281 10.835937-.765625.464844-1.542969.917969-2.261719 1.414063l-60.746094 39.933593c-.058594 1.652344-.074218 3.683594-.082031 4.898438.023437 1.839843-.050781 3.675781-.214844 5.507812-.808593 5.09375-1.976562 10.125-3.5 15.054688-1.621093 4.949219-3.640625 9.757812-6.046875 14.378906l-2.585937 5.175781c-15.121094 30.542969-46.308594 49.820313-80.390625 49.6875zm-208.765625-190.015625c-29.800781.082031-59.53125.082031-89.351563.082031-3.507812-.402343-7.0625.222657-10.222656 1.800782-2.535156 2.164062-2.617188 8.785156-2.660156 12.335937 0 14.699219-.082032 29.414063-.164063 44.214844 0 5.664063.371094 12.214844 3.304688 14.261719 2.105469 1.089844 4.410156 1.746094 6.777343 1.933594 1.453126.246093 2.898438.484374 4.3125.824218 11.148438 2.367188 19.042969 12.328125 18.800782 23.726563v1.402343c.046875 40.253907 32.667968 72.875 72.921875 72.917969h205.046875c27.800781.089844 53.230468-15.640625 65.570312-40.554687l2.582032-5.175782c2-3.816406 3.683593-7.789062 5.039062-11.875 1.285156-4.140624 2.273438-8.367187 2.957031-12.644531 0-.453125 0-1.703125 0-3.136719.046875-7.871093.082031-12.628906 3.550781-15.882812.804688-.761719 1.722657-1.398438 2.714844-1.890625l61.9375-40.6875c.824219-.59375 1.921875-1.238281 2.996094-1.875 1.488281-.710937 2.824219-1.703125 3.941406-2.914063.503906-3.503906.617188-7.050781.335938-10.578124v-1.222657c-.082032-1.652343-.132813-5.78125-.164063-10.304687l-41.109375 7.835937c-20.59375 3.929688-41.195312 7.839844-61.792968 11.734375-8.238282 2.726563-15.542969 7.71875-21.074219 14.402344l-1.074219 1.039062c-10.835938 10.464844-25.300781 16.335938-40.367188 16.375h-124.863281c-27.226562.101563-50.5-19.582031-54.914062-46.449218-.246094-1.453125-.480469-3.007813-.703125-4.574219-.824219-5.972656-1.652344-11.613281-4.671875-13.636719-3.042969-1.300781-6.363281-1.8125-9.65625-1.484375zm0 0" fill="#428dff"/><path d="m327.683594 462.554688h-205.046875c-37.988281 0-75.28125-22.980469-88.777344-54.652344-1.15625-2.714844-.773437-5.839844.996094-8.195313 1.773437-2.359375 4.667969-3.59375 7.597656-3.238281s5.445313 2.246094 6.601563 4.960938c10.835937 25.433593 42.464843 44.59375 73.582031 44.59375h205.046875c27.25 0 63.015625-15.171876 75.785156-40.539063l1.222656-2.476563c1.257813-2.734374 3.90625-4.570312 6.910156-4.785156 3.003907-.210937 5.886719 1.222656 7.523438 3.753906 1.632812 2.527344 1.765625 5.746094.339844 8.394532l-1.230469 2.480468c-16.238281 32.28125-58.765625 49.703126-90.550781 49.703126zm0 0" fill="#428dff"/><path d="m8.34375 343.390625c-2.171875.039063-4.269531-.796875-5.820312-2.316406-1.554688-1.523438-2.429688-3.601563-2.4375005-5.773438v-1.242187c0-4.558594 3.6953125-8.257813 8.2578125-8.257813s8.257812 3.699219 8.257812 8.257813v.910156c.015626 4.59375-3.664062 8.347656-8.257812 8.421875zm0 0" fill="#428dff"/><path d="m272.683594 75.832031c-4.558594 0-8.257813-3.699219-8.257813-8.257812v-42.777344c.015625-2.152344-.839843-4.21875-2.371093-5.730469-1.527344-1.621094-3.660157-2.535156-5.886719-2.527344-4.558594 0-8.257813 3.695313-8.257813 8.257813v35.261719c0 4.558594-3.695312 8.257812-8.257812 8.257812s-8.257813-3.699218-8.257813-8.257812v-35.261719c0-13.683594 11.089844-24.7773438 24.773438-24.7773438 6.609375-.03125 12.949219 2.6289068 17.558593 7.3671878 4.664063 4.585937 7.269532 10.867187 7.214844 17.410156v42.777344c0 4.558593-3.695312 8.257812-8.257812 8.257812zm0 0" fill="#428dff"/><path d="m272.683594 371.632812h-33.03125c-4.5625 0-8.257813-3.695312-8.257813-8.257812v-67.796875c0-4.5625 3.695313-8.257813 8.257813-8.257813s8.257812 3.695313 8.257812 8.257813v59.539063h16.515625v-57.722657c0-4.5625 3.699219-8.257812 8.257813-8.257812 4.5625 0 8.257812 3.695312 8.257812 8.257812v65.980469c0 4.5625-3.695312 8.257812-8.257812 8.257812zm0 0" fill="#428dff"/><path d="m334.175781 305.421875h-.539062l-165.828125-5.292969c-5.035156-.164062-9.722656-2.617187-12.722656-6.664062-3.003907-4.042969-3.996094-9.238282-2.695313-14.105469 8.191406-30.703125 24.589844-113.960937 0-223.332031-1.28125-5.539063.378906-11.351563 4.394531-15.378906 4.015625-4.023438 9.820313-5.703126 15.367188-4.441407l163.292968 37.171875c6.28125 1.429688 11.152344 6.382813 12.488282 12.683594 7.546875 36.113281 29.882812 158.050781.550781 211.101562-2.902344 5.160157-8.390625 8.328126-14.308594 8.257813zm-165.683593-253.117187c25.445312 113.058593 8.390624 199.429687-.125 231.316406l165.789062 5.285156c27.144531-49.054688 2.785156-174.757812-2.378906-199.457031l-163.242188-37.164063h-.042968zm0 0" fill="#428dff"/><path d="m35.875 93.246094c7.796875 35.960937 9.546875 72.96875 5.179688 109.503906-1.210938 9.566406-2.984376 19.054688-5.3125 28.414062l-16.003907-4.046874c2.171875-8.703126 3.824219-17.527344 4.957031-26.425782 4.125-34.691406 2.453126-69.828125-4.957031-103.96875zm0 0" fill="#fff"/><g fill="#428dff"><path d="m33.910156 135.765625c2.203125-.203125 4.230469-1.289063 5.621094-3.011719s2.027344-3.929687 1.761719-6.128906c-1.207031-11.230469-3.203125-22.296875-5.417969-33.378906l-16.152344 3.394531c2.097656 10.546875 4.015625 21.132813 5.160156 31.808594.550782 4.472656 4.539063 7.707031 9.027344 7.316406zm0 0"/><path d="m19.738281 227.117188 16.003907 4.082031c2.328124-9.359375 4.101562-18.847657 5.3125-28.417969l.949218-8.449219c.238282-2.203125-.429687-4.414062-1.847656-6.117187-1.421875-1.703125-3.472656-2.761719-5.683594-2.921875-4.476562-.300781-8.402344 2.972656-8.910156 7.429687l-.890625 7.960938c-1.125 8.902344-2.769531 17.726562-4.933594 26.433594zm0 0"/><path d="m43.449219 160.410156c-.082031-2.230468-.992188-4.351562-2.550781-5.945312l-1.265626-.96875c-.460937-.296875-.957031-.53125-1.476562-.699219-.476562-.226563-.984375-.371094-1.503906-.4375-.546875-.074219-1.097656-.113281-1.652344-.109375-2.175781.125-4.230469 1.035156-5.78125 2.570312-2.996094 3.265626-2.9375 8.300782.132812 11.503907.792969.738281 1.714844 1.328125 2.71875 1.742187.992188.429688 2.054688.664063 3.136719.699219 2.1875.003906 4.292969-.839844 5.871094-2.351563 1.515625-1.632812 2.359375-3.777343 2.371094-6.003906zm0 0"/><path d="m125.632812 252.445312h-.925781l-89.9375-4.953124c-4.894531-.261719-9.414062-2.695313-12.324219-6.640626-2.910156-3.941406-3.902343-8.980468-2.707031-13.734374 1.140625-4.417969 5.648438-7.078126 10.066407-5.9375 4.421874 1.140624 7.078124 5.648437 5.9375 10.066406l89.875 4.757812c11.5625-24.566406 6.359374-79.832031-2.355469-123.375l-87.484375-19.191406c.46875 2.125.0625 4.347656-1.121094 6.167969-1.1875 1.824219-3.054688 3.09375-5.1875 3.527343-2.148438.441407-4.386719.007813-6.214844-1.203124-1.828125-1.210938-3.101562-3.097657-3.539062-5.246094-1.132813-5.453125.574218-11.109375 4.535156-15.023438 3.964844-3.914062 9.640625-5.550781 15.078125-4.351562l87.535156 19.214844c6.359375 1.386718 11.296875 6.402343 12.578125 12.785156 5.78125 28.695312 17.339844 99.15625 1.148438 133.574218-2.703125 5.824219-8.535156 9.554688-14.957032 9.5625zm0 0"/><path d="m390.105469 287.402344c-4.269531.003906-8.363281-1.6875-11.386719-4.699219-3.726562-3.730469-5.484375-8.992187-4.75-14.210937 2.960938-34.789063 2.875-69.769532-.261719-104.539063-.496093-6.972656 3.472657-13.492187 9.894531-16.253906 6.417969-2.761719 13.882813-1.15625 18.601563 4 29.074219 30.902343 53.085937 66.203125 71.152344 104.59375 2.222656 4.929687 1.875 10.636719-.929688 15.261719-2.804687 4.621093-7.710937 7.5625-13.109375 7.863281-21.808594 1.238281-51.148437 5.40625-66.699218 7.785156-.832032.128906-1.671876.195313-2.511719.199219zm.089843-124.359375c3.21875 35.84375 3.261719 71.902343.125 107.753906 15.691407-2.332031 45.578126-6.609375 68.0625-7.863281-17.445312-36.621094-40.445312-70.332032-68.1875-99.929688zm0 0"/><path d="m99.265625 305.570312h-33.03125c-4.5625 0-8.257813-3.699218-8.257813-8.257812v-56.402344c0-4.5625 3.695313-8.257812 8.257813-8.257812 4.558594 0 8.257813 3.695312 8.257813 8.257812v48.144532h16.515624v-46.328126c0-4.5625 3.695313-8.257812 8.257813-8.257812 4.558594 0 8.257813 3.695312 8.257813 8.257812v54.585938c0 4.558594-3.699219 8.257812-8.257813 8.257812zm0 0"/><path d="m49.714844 338.601562c0 4.5625-3.695313 8.257813-8.257813 8.257813-4.558593 0-8.257812-3.695313-8.257812-8.257813 0-4.558593 3.699219-8.257812 8.257812-8.257812 4.5625 0 8.257813 3.699219 8.257813 8.257812zm0 0"/><path d="m82.75 338.601562c0 4.5625-3.699219 8.257813-8.257812 8.257813-4.5625 0-8.257813-3.695313-8.257813-8.257813 0-4.558593 3.695313-8.257812 8.257813-8.257812 4.558593 0 8.257812 3.699219 8.257812 8.257812zm0 0"/><path d="m115.78125 338.601562c0 4.5625-3.695312 8.257813-8.257812 8.257813s-8.257813-3.695313-8.257813-8.257813c0-4.558593 3.695313-8.257812 8.257813-8.257812s8.257812 3.699219 8.257812 8.257812zm0 0"/><path d="m157.070312 404.667969c0 4.558593-3.695312 8.257812-8.257812 8.257812-4.558594 0-8.257812-3.699219-8.257812-8.257812 0-4.5625 3.699218-8.257813 8.257812-8.257813 4.5625 0 8.257812 3.695313 8.257812 8.257813zm0 0"/><path d="m190.105469 404.667969c0 4.558593-3.699219 8.257812-8.257813 8.257812-4.5625 0-8.261718-3.699219-8.261718-8.257812 0-4.5625 3.699218-8.257813 8.261718-8.257813 4.558594 0 8.257813 3.695313 8.257813 8.257813zm0 0"/><path d="m223.136719 404.667969c0 4.558593-3.699219 8.257812-8.257813 8.257812-4.5625 0-8.257812-3.699219-8.257812-8.257812 0-4.5625 3.695312-8.257813 8.257812-8.257813 4.558594 0 8.257813 3.695313 8.257813 8.257813zm0 0"/><path d="m256.167969 404.667969c0 4.558593-3.695313 8.257812-8.257813 8.257812s-8.257812-3.699219-8.257812-8.257812c0-4.5625 3.695312-8.257813 8.257812-8.257813s8.257813 3.695313 8.257813 8.257813zm0 0"/><path d="m289.199219 404.667969c0 4.558593-3.695313 8.257812-8.257813 8.257812-4.558594 0-8.257812-3.699219-8.257812-8.257812 0-4.5625 3.699218-8.257813 8.257812-8.257813 4.5625 0 8.257813 3.695313 8.257813 8.257813zm0 0"/><path d="m322.234375 404.667969c0 4.558593-3.699219 8.257812-8.257813 8.257812-4.5625 0-8.261718-3.699219-8.261718-8.257812 0-4.5625 3.699218-8.257813 8.261718-8.257813 4.558594 0 8.257813 3.695313 8.257813 8.257813zm0 0"/><path d="m43.769531 495.503906h-18.828125c-9.121094 0-16.515625-7.394531-16.515625-16.515625v-33.03125c0-9.121093 7.394531-16.515625 16.515625-16.515625h22.875c4.5625 0 8.257813 3.695313 8.257813 8.257813 0 4.558593-3.695313 8.257812-8.257813 8.257812h-22.875v33.03125h18.828125l8.101563-24.394531c1.433594-4.332031 6.105468-6.683594 10.4375-5.25 4.335937 1.429688 6.6875 6.105469 5.253906 10.4375l-8.085938 24.445312c-2.292968 6.722657-8.601562 11.25-15.707031 11.277344zm0 0"/><path d="m264.425781 214.730469c-4.800781-.003907-9.59375-.433594-14.320312-1.289063-10.441407-1.769531-20.359375-5.84375-29.035157-11.921875-7.855468-5.304687-14.160156-12.59375-18.273437-21.132812-2.933594-6.023438-4.449219-12.636719-4.433594-19.332031 0-29.597657 29.636719-53.679688 66.0625-53.679688s66.066407 24.082031 66.066407 53.679688c.011718 6.75-1.53125 13.417968-4.5 19.480468-4.140626 8.527344-10.464844 15.804688-18.335938 21.089844-8.652344 6.035156-18.539062 10.070312-28.945312 11.816406-1.027344.222656-2.066407.390625-3.113282.503906-3.699218.53125-7.433594.792969-11.171875.785157zm0-90.839844c-27.324219 0-49.546875 16.675781-49.546875 37.164063-.011718 4.238281.957032 8.421874 2.824219 12.230468 2.902344 5.972656 7.34375 11.0625 12.863281 14.746094 6.710938 4.679688 14.378906 7.808594 22.449219 9.152344 6.78125 1.222656 13.714844 1.351562 20.535156.378906.695313-.078125 1.382813-.191406 2.066407-.339844 8.089843-1.320312 15.78125-4.421875 22.527343-9.082031 5.539063-3.664063 10.007813-8.738281 12.941407-14.699219 1.90625-3.851562 2.898437-8.089844 2.890624-12.386718 0-20.488282-22.222656-37.164063-49.550781-37.164063zm0 0"/><path d="m231.394531 247.761719c-10.953125-.085938-20.578125-7.28125-23.757812-17.761719-.664063-2.277344-1.003907-4.636719-1.015625-7.011719v-38.480469c0-4.5625 3.695312-8.257812 8.257812-8.257812 4.558594 0 8.257813 3.695312 8.257813 8.257812v38.480469c.003906.820313.128906 1.636719.363281 2.421875 1.160156 3.6875 4.726562 6.078125 8.578125 5.75 3.855469-.328125 6.964844-3.289062 7.484375-7.121094.050781-.347656.082031-.699218.089844-1.050781v-17.671875c0-4.558594 3.695312-8.257812 8.257812-8.257812s8.257813 3.699218 8.257813 8.257812v17.671875c-.011719 1.054688-.085938 2.105469-.222657 3.148438-1.625 12.332031-12.113281 21.566406-24.550781 21.625zm0 0"/><path d="m264.425781 247.761719c-1.558593.015625-3.113281-.128907-4.640625-.429688l-.4375-.082031c-10.160156-2.136719-17.917968-10.371094-19.449218-20.644531-.152344-1.199219-.234376-2.40625-.246094-3.617188v-17.671875c-.03125-4.632812 3.625-8.457031 8.257812-8.628906 2.152344-.085938 4.246094.707031 5.800782 2.191406 1.558593 1.488282 2.445312 3.542969 2.457031 5.695313v18.414062c.011719.503907.050781 1.003907.117187 1.503907.601563 3.195312 3.011719 5.746093 6.167969 6.53125l.527344.109374c.957031.15625 1.933593.15625 2.890625 0 .191406-.050781.378906-.082031.570312-.117187 3.675782-.925781 6.25-4.234375 6.242188-8.027344v-17.671875c0-4.558594 3.699218-8.257812 8.257812-8.257812 4.5625 0 8.257813 3.699218 8.257813 8.257812v17.671875c-.03125 11.722657-8.238281 21.832031-19.703125 24.269531l-.46875.085938c-1.515625.292969-3.058594.433594-4.601563.417969zm0 0"/><path d="m297.457031 247.761719c-13.679687 0-24.773437-11.089844-24.773437-24.773438v-17.671875c-.027344-4.632812 3.628906-8.457031 8.257812-8.628906 2.152344-.085938 4.246094.707031 5.800782 2.191406 1.558593 1.488282 2.445312 3.542969 2.457031 5.695313v18.414062c0 4.5625 3.699219 8.257813 8.257812 8.257813 4.5625 0 8.257813-3.695313 8.257813-8.257813v-38.480469c0-4.5625 3.699218-8.257812 8.261718-8.257812 4.558594 0 8.257813 3.695312 8.257813 8.257812v38.480469c0 13.683594-11.09375 24.773438-24.777344 24.773438zm0 0"/><path d="m247.910156 181.699219c-4.5625 0-8.257812-3.699219-8.257812-8.257813v-16.515625c0-4.5625 3.695312-8.257812 8.257812-8.257812s8.257813 3.695312 8.257813 8.257812v16.515625c0 4.558594-3.695313 8.257813-8.257813 8.257813zm0 0"/><path d="m280.941406 181.699219c-4.558594 0-8.257812-3.699219-8.257812-8.257813v-16.515625c0-4.5625 3.699218-8.257812 8.257812-8.257812 4.5625 0 8.257813 3.695312 8.257813 8.257812v16.515625c0 4.558594-3.695313 8.257813-8.257813 8.257813zm0 0"/><path d="m107.523438 140.410156c-.554688.003906-1.109376-.054687-1.652344-.167968l-41.289063-8.257813c-4.46875-.910156-7.355469-5.273437-6.441406-9.742187.910156-4.472657 5.273437-7.355469 9.742187-6.441407l41.292969 8.257813c4.15625.84375 7 4.699218 6.570313 8.921875-.425782 4.222656-3.980469 7.433593-8.222656 7.429687zm0 0"/><path d="m272.683594 57.828125c-4.109375-.015625-7.582032-3.050781-8.148438-7.121094-.566406-4.070312 1.945313-7.9375 5.894532-9.074219l30-8.578124-30.007813-8.582032c-2.9375-.71875-5.246094-2.988281-6.019531-5.910156-.773438-2.925781.117187-6.035156 2.3125-8.113281 2.199218-2.078125 5.355468-2.785157 8.230468-1.847657l57.808594 16.515626c3.539063 1.019531 5.972656 4.253906 5.972656 7.9375 0 3.679687-2.433593 6.917968-5.972656 7.933593l-57.808594 16.515625c-.734374.21875-1.496093.328125-2.261718.324219zm0 0"/><path d="m396.554688 335.792969c-4.558594 0-8.257813-3.695313-8.257813-8.257813v-49.382812c0-4.558594 3.699219-8.257813 8.257813-8.257813 4.5625 0 8.257812 3.699219 8.257812 8.257813v49.382812c0 4.5625-3.695312 8.257813-8.257812 8.257813zm0 0"/><path d="m429.585938 329.519531c-4.558594 0-8.257813-3.699219-8.257813-8.257812v-47.484375c0-4.5625 3.699219-8.257813 8.257813-8.257813 4.5625 0 8.261718 3.695313 8.261718 8.257813v47.484375c0 4.558593-3.699218 8.257812-8.261718 8.257812zm0 0"/></g></svg>